<svg width="600" height="400" viewBox="0 0 600 400" fill="none" xmlns="http://www.w3.org/2000/svg">
  <rect width="600" height="400" fill="#E5E9E0" />
  
  <!-- Large tent -->
  <rect x="100" y="80" width="400" height="200" rx="8" fill="#F4B995" fill-opacity="0.1" stroke="#365E37" stroke-width="2"/>
  <path d="M100 80L300 30L500 80" stroke="#365E37" stroke-width="2"/>
  
  <!-- Tables setup -->
  <circle cx="170" cy="150" r="30" fill="#365E37" fill-opacity="0.15"/>
  <circle cx="260" cy="150" r="30" fill="#365E37" fill-opacity="0.15"/>
  <circle cx="350" cy="150" r="30" fill="#365E37" fill-opacity="0.15"/>
  <circle cx="440" cy="150" r="30" fill="#365E37" fill-opacity="0.15"/>
  
  <circle cx="170" cy="240" r="30" fill="#365E37" fill-opacity="0.15"/>
  <circle cx="260" cy="240" r="30" fill="#365E37" fill-opacity="0.15"/>
  <circle cx="350" cy="240" r="30" fill="#365E37" fill-opacity="0.15"/>
  <circle cx="440" cy="240" r="30" fill="#365E37" fill-opacity="0.15"/>
  
  <!-- Dance floor -->
  <rect x="230" y="170" width="150" height="50" rx="4" fill="#F4B995" fill-opacity="0.2" stroke="#365E37" stroke-width="1"/>
  
  <!-- People silhouettes -->
  <circle cx="170" cy="150" r="5" fill="#365E37" fill-opacity="0.3"/>
  <circle cx="185" cy="150" r="5" fill="#365E37" fill-opacity="0.3"/>
  <circle cx="155" cy="150" r="5" fill="#365E37" fill-opacity="0.3"/>
  
  <circle cx="260" cy="150" r="5" fill="#365E37" fill-opacity="0.3"/>
  <circle cx="275" cy="150" r="5" fill="#365E37" fill-opacity="0.3"/>
  <circle cx="245" cy="150" r="5" fill="#365E37" fill-opacity="0.3"/>
  
  <!-- Text at bottom -->
  <rect x="150" y="300" width="300" height="50" rx="8" fill="#F4B995" fill-opacity="0.3"/>
  <text x="300" y="330" text-anchor="middle" font-family="Arial" font-size="16" fill="#365E37">MONTAJE DE EVENTOS</text>
</svg>