<svg width="400" height="300" viewBox="0 0 400 300" fill="none" xmlns="http://www.w3.org/2000/svg">
  <rect width="400" height="300" fill="#E5E9E0" />
  <path d="M181.92 137.28H176.64V162.72H181.92V137.28Z" fill="#365E37"/>
  <path d="M167.232 137.28H161.952V142.56H167.232V137.28Z" fill="#365E37"/>
  <path d="M167.232 147.84H161.952V162.72H167.232V147.84Z" fill="#365E37"/>
  <path d="M156.672 137.28H151.392V142.56H156.672V137.28Z" fill="#365E37"/>
  <path d="M156.672 147.84H151.392V162.72H156.672V147.84Z" fill="#365E37"/>
  <path d="M145.824 147.84H135.264V162.72H145.824V147.84Z" fill="#365E37"/>
  <path d="M227.2 138.016C219.478 138.016 213.2 144.293 213.2 152.016C213.2 159.738 219.478 166.016 227.2 166.016C234.922 166.016 241.2 159.738 241.2 152.016C241.2 144.293 234.922 138.016 227.2 138.016ZM227.2 160.736C222.39 160.736 218.48 156.826 218.48 152.016C218.48 147.206 222.39 143.296 227.2 143.296C232.01 143.296 235.92 147.206 235.92 152.016C235.92 156.826 232.01 160.736 227.2 160.736Z" fill="#365E37"/>
  <path d="M254.112 143.296H248.832V148.576H254.112V143.296Z" fill="#365E37"/>
  <path d="M264.672 143.296H259.392V162.72H264.672V143.296Z" fill="#365E37"/>
  <path d="M157.504 122.24H151.68V132.448H157.504V122.24Z" fill="#F4B995"/>
  <path d="M241.664 122.24H235.84V132.448H241.664V122.24Z" fill="#F4B995"/>
  <path d="M199.584 112.896C189.029 112.896 180.48 121.445 180.48 132C180.48 142.555 189.029 151.104 199.584 151.104C210.139 151.104 218.688 142.555 218.688 132C218.688 121.445 210.139 112.896 199.584 112.896ZM199.584 145.28C192.238 145.28 186.304 139.346 186.304 132C186.304 124.654 192.238 118.72 199.584 118.72C206.93 118.72 212.864 124.654 212.864 132C212.864 139.346 206.93 145.28 199.584 145.28Z" fill="#F4B995"/>
  <path d="M216.064 180.96C214.336 177.664 210.752 175.36 206.752 175.36H192.256C188.256 175.36 184.672 177.664 182.944 180.96C181.056 184.416 176.64 192.96 176.64 199.04C176.64 208.32 178.432 212.48 180.672 212.48C181.888 212.48 183.744 210.144 185.344 208.128C187.456 205.456 189.568 202.784 192.256 202.784H206.752C209.44 202.784 211.424 205.456 213.664 208.128C215.264 210.144 216.992 212.48 218.336 212.48C220.576 212.48 222.368 208.32 222.368 199.04C222.368 192.96 217.952 184.416 216.064 180.96Z" fill="#F4B995"/>
  <path d="M200 185.28L196.992 178.368H203.008L200 185.28Z" fill="#F4B995"/>
  <path d="M139.008 193.28H133.632V202.72H139.008V193.28Z" fill="#F4B995"/>
  <path d="M145.92 193.28H140.544V202.72H145.92V193.28Z" fill="#F4B995"/>
  <path d="M152.832 193.28H147.456V202.72H152.832V193.28Z" fill="#F4B995"/>
  <path d="M159.744 193.28H154.368V202.72H159.744V193.28Z" fill="#F4B995"/>
  <path d="M166.656 193.28H161.28V202.72H166.656V193.28Z" fill="#F4B995"/>
  <path d="M252.48 193.28H247.104V202.72H252.48V193.28Z" fill="#F4B995"/>
  <path d="M259.392 193.28H254.016V202.72H259.392V193.28Z" fill="#F4B995"/>
  <path d="M266.304 193.28H260.928V202.72H266.304V193.28Z" fill="#F4B995"/>
  <path d="M135.52 163.84H128.608V176H135.52V163.84Z" fill="#365E37"/>
  <path d="M143.968 163.84H137.056V176H143.968V163.84Z" fill="#365E37"/>
  <path d="M152.416 163.84H145.504V176H152.416V163.84Z" fill="#365E37"/>
  <path d="M160.864 163.84H153.952V176H160.864V163.84Z" fill="#365E37"/>
  <path d="M169.312 163.84H162.4V176H169.312V163.84Z" fill="#365E37"/>
  <path d="M177.76 163.84H170.848V176H177.76V163.84Z" fill="#365E37"/>
  <path d="M186.208 163.84H179.296V176H186.208V163.84Z" fill="#365E37"/>
  <path d="M194.656 163.84H187.744V176H194.656V163.84Z" fill="#365E37"/>
  <path d="M203.104 163.84H196.192V176H203.104V163.84Z" fill="#365E37"/>
  <path d="M211.552 163.84H204.64V176H211.552V163.84Z" fill="#365E37"/>
  <path d="M220 163.84H213.088V176H220V163.84Z" fill="#365E37"/>
  <path d="M228.448 163.84H221.536V176H228.448V163.84Z" fill="#365E37"/>
  <path d="M236.896 163.84H229.984V176H236.896V163.84Z" fill="#365E37"/>
  <path d="M245.344 163.84H238.432V176H245.344V163.84Z" fill="#365E37"/>
  <path d="M253.792 163.84H246.88V176H253.792V163.84Z" fill="#365E37"/>
  <path d="M262.24 163.84H255.328V176H262.24V163.84Z" fill="#365E37"/>
  <path d="M270.688 163.84H263.776V176H270.688V163.84Z" fill="#365E37"/>
  <path d="M200 112.896V118.72M180.48 132H186.304M212.864 132H218.688M199.584 145.28V151.104" stroke="#F4B995" stroke-width="1.5" stroke-linecap="round" stroke-linejoin="round"/>
  <text x="200" y="245" text-anchor="middle" font-family="Helvetica, Arial, sans-serif" font-size="18" fill="#365E37">ALTIVENTO</text>
</svg>